<svg xmlns="http://www.w3.org/2000/svg" viewBox="0 0 760 460" font-family="-apple-system,BlinkMacSystemFont,Segoe UI,Helvetica,Arial,sans-serif">
<rect x="0" y="0" width="760" height="460" rx="16" fill="#0f172a"/>
<text x="26" y="40" fill="#e2e8f0" font-size="23" font-weight="700">EXL3 decode: Apple M5 Max vs RTX 4090</text>
<text x="26" y="64" fill="#94a3b8" font-size="13.5">tok/s, greedy · same EXL3 weights · 4090 = exllamav3 plain TG · M5 Max drafters verify-gated (token-identical)</text>
<text x="26" y="84" fill="#94a3b8" font-size="12.5">M5 Max = 128 GB laptop SoC · RTX 4090 = 24 GB desktop · the 4090 wins prefill on raw compute (see Performance)</text>
<rect x="250" y="92" width="12" height="12" rx="3" fill="#76b900"/>
<text x="267" y="102" fill="#94a3b8" font-size="12">RTX 4090 (plain)</text>
<rect x="384.0" y="92" width="12" height="12" rx="3" fill="#94a3b8"/>
<text x="401.0" y="102" fill="#94a3b8" font-size="12">M5 Max (plain)</text>
<rect x="504.0" y="92" width="12" height="12" rx="3" fill="#a855f7"/>
<text x="521.0" y="102" fill="#94a3b8" font-size="12">M5 Max (+drafter)</text>
<text x="26" y="118" fill="#e2e8f0" font-size="14.5" font-weight="700">Qwen3.6-27B · 4.15 bpw</text>
<text x="238" y="148" fill="#e2e8f0" font-size="13.5" text-anchor="end">RTX 4090 plain</text>
<rect x="250" y="126" width="135.6" height="34" rx="6" fill="#76b900"/>
<text x="395.6" y="148" fill="#e2e8f0" font-size="14.5" font-weight="700">33</text>
<text x="238" y="191" fill="#e2e8f0" font-size="13.5" text-anchor="end">M5 Max plain</text>
<rect x="250" y="169" width="68.2" height="34" rx="6" fill="#94a3b8"/>
<text x="328.2" y="191" fill="#e2e8f0" font-size="14.5" font-weight="600">17</text>
<text x="238" y="234" fill="#e2e8f0" font-size="13.5" text-anchor="end">M5 Max + DFlash</text>
<rect x="250" y="212" width="156.2" height="34" rx="6" fill="#a855f7"/>
<text x="416.2" y="234" fill="#e2e8f0" font-size="14.5" font-weight="700">38</text>
<text x="26" y="294" fill="#e2e8f0" font-size="14.5" font-weight="700">Qwen3.6-35B-A3B · 4.00 bpw</text>
<text x="238" y="324" fill="#e2e8f0" font-size="13.5" text-anchor="end">RTX 4090 plain</text>
<rect x="250" y="302" width="213.7" height="34" rx="6" fill="#76b900"/>
<text x="473.7" y="324" fill="#e2e8f0" font-size="14.5" font-weight="700">52</text>
<text x="238" y="367" fill="#e2e8f0" font-size="13.5" text-anchor="end">M5 Max plain</text>
<rect x="250" y="345" width="281.5" height="34" rx="6" fill="#94a3b8"/>
<text x="541.5" y="367" fill="#e2e8f0" font-size="14.5" font-weight="600">68</text>
<text x="238" y="410" fill="#e2e8f0" font-size="13.5" text-anchor="end">M5 Max + EAGLE-3</text>
<rect x="250" y="388" width="328.8" height="34" rx="6" fill="#a855f7"/>
<text x="588.8" y="410" fill="#e2e8f0" font-size="14.5" font-weight="700">80</text>
<text x="26" y="446" fill="#94a3b8" font-size="12.5">M5 Max wins MoE decode outright (68 vs 52); on dense it trails plain but its verify-gated drafters pull ahead.</text>
</svg>